<svg xmlns="http://www.w3.org/2000/svg" width="180.512" height="261.079" viewBox="0 0 180.512 261.079">
  <g id="Raggruppa_30" data-name="Raggruppa 30" transform="translate(-540 -295.275)">
    <g id="health-report" transform="translate(540 295.275)">
      <path id="Tracciato_59" data-name="Tracciato 59" d="M180.375,33.683H149.716V3.563A3.569,3.569,0,0,0,146.147,0H73.865A3.567,3.567,0,0,0,70.3,3.569V33.683H39.637A19.909,19.909,0,0,0,19.75,53.57V241.184a19.909,19.909,0,0,0,19.887,19.9H180.375a19.909,19.909,0,0,0,19.887-19.887V53.57A19.909,19.909,0,0,0,180.375,33.683ZM73.865,61.219h98.861V233.543H47.286V61.219Zm3.569-54.08h65.143V54.08H77.434ZM193.123,241.184a12.762,12.762,0,0,1-12.748,12.748H39.637a12.762,12.762,0,0,1-12.748-12.748V53.57A12.762,12.762,0,0,1,39.637,40.822H70.3V54.08H43.716a3.567,3.567,0,0,0-3.569,3.569V237.1a3.567,3.567,0,0,0,3.569,3.578H176.3a3.567,3.567,0,0,0,3.569-3.569V57.65A3.567,3.567,0,0,0,176.3,54.08H149.716V40.822h30.658A12.762,12.762,0,0,1,193.123,53.57Z" transform="translate(-19.75 0)"/>
      <path id="Tracciato_60" data-name="Tracciato 60" d="M60.288,26.145H68v7.712a3.569,3.569,0,1,0,7.139,0V26.145h7.712a3.569,3.569,0,1,0,0-7.139H75.139V11.294a3.569,3.569,0,1,0-7.139,0v7.712H60.288a3.569,3.569,0,1,0,0,7.139Z" transform="translate(18.686 8.032)"/>
    </g>
    <g id="tooth_1_" data-name="tooth (1)" transform="translate(579.688 390.634)">
      <g id="Raggruppa_9" data-name="Raggruppa 9" transform="translate(0 0)">
        <g id="Raggruppa_8" data-name="Raggruppa 8">
          <path id="Tracciato_34" data-name="Tracciato 34" d="M109.06,1.773c-13.9-4.457-25.513.531-30.838,3.6C72.9,2.3,61.285-2.685,47.383,1.773,28.974,7.678,20.343,34.56,35.1,56.25c6.993,10.272,7.927,18.2,8.916,26.584.724,6.141,1.472,12.49,4.6,19.914,2.1,4.991,5.074,10.7,9.47,10.7h.12c3.535-.084,6.384-3.59,9.237-11.369a91.522,91.522,0,0,0,3.284-13.17c1.621-8.145,3.3-16.567,7.509-16.6h.022c4.166,0,5.838,8.425,7.456,16.573A91.326,91.326,0,0,0,89,102.076c2.856,7.792,5.7,11.3,9.237,11.387h.12c4.388,0,7.363-5.718,9.468-10.717,2.987-7.094,3.77-13.428,4.527-19.553,1.066-8.624,2.072-16.77,9-26.967C136.291,34.256,127.161,7.575,109.06,1.773Zm8.631,51.962c-7.534,11.083-8.654,20.149-9.737,28.916-.753,6.094-1.464,11.849-4.213,18.376-3.261,7.743-5.152,8.005-5.392,8.005h-.007c-.085,0-2.124-.145-5.18-8.482a88.284,88.284,0,0,1-3.1-12.532c-.974-4.909-1.894-9.545-3.411-13.164-1.941-4.631-4.761-6.978-8.385-6.978h-.061c-3.639.025-6.47,2.391-8.415,7.031-1.516,3.617-2.436,8.24-3.409,13.133a88.5,88.5,0,0,1-3.1,12.51c-3.05,8.319-5.094,8.462-5.18,8.464-.2,0-2.112-.178-5.4-7.987-2.882-6.845-3.562-12.609-4.281-18.712-1.008-8.549-2.05-17.39-9.654-28.559C25.462,34.2,33.483,10.887,48.738,5.994,62,1.74,72.951,7.266,77.042,9.839a2.215,2.215,0,0,0,2.359,0c4.093-2.573,15.044-8.1,28.305-3.846C123.264,10.98,130.729,34.554,117.691,53.735Z" transform="translate(-27.617 0)" stroke="#000" stroke-width="3"/>
        </g>
      </g>
    </g>
  </g>
</svg>
