<svg xmlns="http://www.w3.org/2000/svg" width="238.639" height="238.648" viewBox="0 0 238.639 238.648">
  <g id="tooth" transform="translate(-0.01 0)">
    <g id="Raggruppa_29" data-name="Raggruppa 29" transform="translate(0.01 0)">
      <path id="Tracciato_55" data-name="Tracciato 55" d="M237.9,132.927,224.33,113.912a24.918,24.918,0,0,0-29.492-8.75l1.078-2.589A141.2,141.2,0,0,0,206.83,47.984a47.972,47.972,0,0,0-71.779-41.65,31.842,31.842,0,0,1-31.445,0,47.97,47.97,0,0,0-71.778,41.65,141.193,141.193,0,0,0,10.922,54.6l1.078,2.589a24.918,24.918,0,0,0-29.492,8.75L.754,132.927a3.953,3.953,0,0,0-.744,2.311v99.433a3.978,3.978,0,0,0,3.977,3.977H234.672a3.978,3.978,0,0,0,3.977-3.977V135.238A3.953,3.953,0,0,0,237.9,132.927ZM83.708,11.977l.036-3.755a40.032,40.032,0,0,1,15.909,5.015,39.8,39.8,0,0,0,39.348,0A39.974,39.974,0,0,1,154.91,8.223l.036,3.755A15.735,15.735,0,0,1,139.351,27.85h-.136a3.978,3.978,0,0,0-3.977,3.977A11.932,11.932,0,0,1,123.306,43.76h-7.955A11.932,11.932,0,0,1,103.42,31.828a3.978,3.978,0,0,0-3.977-3.977A15.734,15.734,0,0,1,83.708,12.117C83.708,12.07,83.708,12.024,83.708,11.977ZM39.783,47.984A40.075,40.075,0,0,1,75.789,8.167l-.036,3.739A23.7,23.7,0,0,0,95.811,35.531a19.919,19.919,0,0,0,19.541,16.184h7.955a19.918,19.918,0,0,0,19.541-16.184A23.7,23.7,0,0,0,162.9,11.906l-.036-3.739a40.075,40.075,0,0,1,36.007,39.817A133.332,133.332,0,0,1,188.57,99.522L179.3,121.795a3.9,3.9,0,0,0-.27.994l-10.293,75.482a9.9,9.9,0,0,1-19.572.29l-12.015-72.073a18.061,18.061,0,0,0-35.629,0L89.5,198.561a9.9,9.9,0,0,1-19.572-.286L59.634,122.769a3.9,3.9,0,0,0-.27-.994L50.088,99.5A133.347,133.347,0,0,1,39.783,47.984Zm190.911,182.71H7.964V136.511l12.843-17.977A17.1,17.1,0,0,1,50,120.825l1.838,3.675,10.214,74.849a17.85,17.85,0,0,0,35.295.517l12.015-72.093a10.11,10.11,0,0,1,19.942,0l12.015,72.093a17.85,17.85,0,0,0,35.295-.522l10.2-74.845,1.838-3.675a17.1,17.1,0,0,1,29.2-2.291l12.843,17.977Z" transform="translate(-0.01 0)"/>
    </g>
  </g>
</svg>
