<svg id="tooth_1_" data-name="tooth (1)" xmlns="http://www.w3.org/2000/svg" width="199.385" height="223.496" viewBox="0 0 199.385 223.496">
  <g id="Raggruppa_7" data-name="Raggruppa 7" transform="translate(152.06 20.513)">
    <g id="Raggruppa_6" data-name="Raggruppa 6">
      <path id="Tracciato_33" data-name="Tracciato 33" d="M380.333,46.993a4.365,4.365,0,1,0,4.365,4.365A4.367,4.367,0,0,0,380.333,46.993Z" transform="translate(-375.968 -46.993)"/>
    </g>
  </g>
  <g id="Raggruppa_9" data-name="Raggruppa 9" transform="translate(0 0)">
    <g id="Raggruppa_8" data-name="Raggruppa 8">
      <path id="Tracciato_34" data-name="Tracciato 34" d="M188.039,3.492c-27.376-8.778-50.254,1.045-60.743,7.1-10.488-6.054-33.363-15.878-60.745-7.1C30.289,15.124,13.288,68.074,42.363,110.8c13.775,20.233,15.615,35.84,17.562,52.363,1.426,12.1,2.9,24.6,9.057,39.225,4.141,9.83,9.994,21.075,18.654,21.074l.237,0c6.964-.165,12.576-7.071,18.194-22.395,2.862-7.811,4.7-17.029,6.47-25.942,3.192-16.044,6.494-32.633,14.79-32.691h.044c8.206,0,11.5,16.6,14.686,32.644,1.774,8.942,3.61,18.188,6.471,25.99,5.626,15.347,11.237,22.265,18.194,22.429l.236,0c8.643,0,14.5-11.263,18.65-21.11,5.884-13.973,7.426-26.45,8.916-38.515,2.1-16.988,4.081-33.033,17.735-53.119C241.676,67.476,223.692,14.921,188.039,3.492Zm17,102.352c-14.84,21.83-17.046,39.687-19.18,56.957-1.483,12-2.884,23.34-8.3,36.2-6.424,15.251-10.149,15.768-10.62,15.768h-.014c-.168,0-4.184-.286-10.2-16.707-2.628-7.164-4.4-16.071-6.1-24.684-1.919-9.669-3.731-18.8-6.719-25.931-3.823-9.121-9.378-13.745-16.516-13.745h-.12c-7.167.05-12.744,4.71-16.574,13.849-2.986,7.125-4.8,16.23-6.716,25.869-1.709,8.587-3.476,17.467-6.1,24.641-6.008,16.386-10.034,16.668-10.2,16.672-.391.007-4.16-.351-10.639-15.732-5.678-13.483-7.016-24.837-8.433-36.858-1.985-16.84-4.037-34.254-19.015-56.254C23.372,67.372,39.171,21.445,69.219,11.806c26.13-8.379,47.695,2.506,55.753,7.575a4.363,4.363,0,0,0,4.647,0c8.062-5.068,29.632-15.952,55.755-7.575C216.017,21.629,230.72,68.063,205.04,105.843Z" transform="translate(-27.617 0)"/>
    </g>
  </g>
  <g id="Raggruppa_11" data-name="Raggruppa 11" transform="translate(165.177 32.028)">
    <g id="Raggruppa_10" data-name="Raggruppa 10">
      <path id="Tracciato_35" data-name="Tracciato 35" d="M419.575,86.535a47.27,47.27,0,0,0-5.585-11.257,4.365,4.365,0,1,0-7.212,4.92,38.557,38.557,0,0,1,4.542,9.181c4.35,12.626,3.215,27.358-3.114,40.419a4.365,4.365,0,0,0,7.856,3.807C423.391,118.482,424.671,101.326,419.575,86.535Z" transform="translate(-406.018 -73.372)"/>
    </g>
  </g>
  <g id="Raggruppa_13" data-name="Raggruppa 13" transform="translate(25.687 33.299)">
    <g id="Raggruppa_12" data-name="Raggruppa 12">
      <path id="Tracciato_36" data-name="Tracciato 36" d="M144.592,102.7l-17.573-5.858-5.858-17.573a4.365,4.365,0,0,0-8.282,0l-5.858,17.573L89.449,102.7a4.365,4.365,0,0,0,0,8.282l17.573,5.858,5.858,17.573a4.365,4.365,0,0,0,8.282,0l5.858-17.573,17.573-5.858a4.365,4.365,0,0,0,0-8.282Zm-22.4,6.548a4.364,4.364,0,0,0-2.761,2.761l-2.406,7.22-2.407-7.22a4.364,4.364,0,0,0-2.761-2.761l-7.22-2.407,7.22-2.407a4.364,4.364,0,0,0,2.761-2.761l2.406-7.22,2.407,7.22a4.364,4.364,0,0,0,2.761,2.761l7.22,2.407Z" transform="translate(-86.464 -76.283)"/>
    </g>
  </g>
</svg>
