<svg id="implant" xmlns="http://www.w3.org/2000/svg" width="171.163" height="242.004" viewBox="0 0 171.163 242.004">
  <path id="Tracciato_31" data-name="Tracciato 31" d="M166.016,24.793a3.545,3.545,0,0,0-6.292,3.268,38.5,38.5,0,0,1,2.734,28.81c-1.141,3.866-11.165,37.817-11.6,39.5a.759.759,0,0,1-.729.572H66.47a3.545,3.545,0,1,0,0,7.09h72.9l-1.97,10.832a.752.752,0,0,1-.74.617H34.516a.749.749,0,0,1-.739-.617l-1.972-10.832H51.032a3.545,3.545,0,0,0,0-7.09H21.049a.757.757,0,0,1-.729-.571c-.009-.037-.02-.074-.03-.111L8.718,56.871A38.781,38.781,0,0,1,45.907,7.09,38.846,38.846,0,0,1,56.713,8.615a103.655,103.655,0,0,0,57.75,0A38.875,38.875,0,0,1,150.95,16.8a3.545,3.545,0,1,0,4.706-5.3,45.971,45.971,0,0,0-43.165-9.7,96.564,96.564,0,0,1-53.806,0A45.972,45.972,0,0,0,45.907,0,45.869,45.869,0,0,0,1.918,58.874L13.474,98.216a7.845,7.845,0,0,0,7.575,5.82H24.6l2.2,12.1a7.836,7.836,0,0,0,7.714,6.438H49.965l2.5,21.565-2.5.668a10.013,10.013,0,0,0,4.836,19.431l1.274,10.969-3.379.907a10.015,10.015,0,1,0,5.185,19.348l.53-.142,1.274,10.958-2.893.775a10.019,10.019,0,0,0,2.576,19.695,10.09,10.09,0,0,0,2.609-.345l.046-.013.966,8.31a8.254,8.254,0,0,0,8.2,7.3h28.79a8.257,8.257,0,0,0,8.2-7.3l2.48-21.342,3.717-1a10.013,10.013,0,0,0-1.324-19.6l1.449-12.466,3.97-1.063a10.014,10.014,0,0,0-1.566-19.634l1.438-12.369,2.856-.764a10.012,10.012,0,0,0-.508-19.466l.515-4.418h15.446a7.84,7.84,0,0,0,7.716-6.438l2.2-12.1h3.549a7.846,7.846,0,0,0,7.592-5.881c.312-1.2,7.071-24.146,11.54-39.273a45.573,45.573,0,0,0-3.242-34.089ZM101.142,233.88a1.166,1.166,0,0,1-1.158,1.032H71.192a1.166,1.166,0,0,1-1.158-1.032l-1.086-9.346,34.349-9.2Zm13.471-31.951a2.928,2.928,0,0,1-2.068,3.584l-52.4,14.039a2.925,2.925,0,0,1-1.514-5.652l52.4-14.04a2.892,2.892,0,0,1,.757-.1A2.926,2.926,0,0,1,114.613,201.93Zm-8.829-8-39.172,10.5-1.272-10.96,41.8-11.2ZM118.71,168.8a2.93,2.93,0,0,1-2.07,3.584L56.05,188.614a2.925,2.925,0,1,1-1.514-5.652l60.589-16.235a2.926,2.926,0,0,1,3.584,2.068Zm2.731-32.769a2.93,2.93,0,0,1-2.07,3.584l-21.661,5.8a3.545,3.545,0,0,0,1.835,6.848l11.436-3.065-1.355,11.663L63,173.354,61.73,162.4l22.891-6.134a3.546,3.546,0,1,0-1.835-6.85l-29.466,7.9a2.925,2.925,0,0,1-3.29-4.289,2.9,2.9,0,0,1,1.776-1.363l66.051-17.7a2.929,2.929,0,0,1,3.584,2.068Zm-7.972-8.233-54.075,14.49L57.1,122.574h56.972Zm0,0" transform="translate(0 0)"/>
  <path id="Tracciato_32" data-name="Tracciato 32" d="M172.91,43.66a96.564,96.564,0,0,1-53.806,0,3.545,3.545,0,0,0-1.972,6.811,103.722,103.722,0,0,0,28.875,4.1,103.721,103.721,0,0,0,28.875-4.1,3.545,3.545,0,1,0-1.972-6.811Zm0,0" transform="translate(-60.418 -22.95)"/>
</svg>
