<svg xmlns="http://www.w3.org/2000/svg" width="214.23" height="214.217" viewBox="0 0 214.23 214.217">
  <g id="implant" transform="translate(-1 -1.009)">
    <path id="Tracciato_97" data-name="Tracciato 97" d="M32.557,42.1A20,20,0,0,0,46.8,36.2l2.025-2.025-4.886-4.886-2.025,2.025a13.555,13.555,0,0,1-18.707,0l-2.025-2.025-4.886,4.886L18.318,36.2A20,20,0,0,0,32.557,42.1Z" transform="translate(37.549 69.447)"/>
    <path id="Tracciato_98" data-name="Tracciato 98" d="M54.557,42.1A20,20,0,0,0,68.8,36.2l2.025-2.025-4.886-4.886-2.025,2.025a13.555,13.555,0,0,1-18.707,0l-2.025-2.025-4.886,4.886L40.318,36.2a20,20,0,0,0,14.24,5.9Z" transform="translate(91.567 69.447)"/>
    <path id="Tracciato_99" data-name="Tracciato 99" d="M75.921,51.273a38.009,38.009,0,0,1-45.611,0L27.546,49.2,23.4,54.729,26.164,56.8a44.92,44.92,0,0,0,53.9,0l2.764-2.073L78.686,49.2Z" transform="translate(54.999 118.325)"/>
    <path id="Tracciato_100" data-name="Tracciato 100" d="M2.012,209.311a3.455,3.455,0,0,0,2.443,5.9H24.942a61.955,61.955,0,0,0,42.293-16.586,58.63,58.63,0,0,0,81.76,0,61.955,61.955,0,0,0,42.293,16.586h20.487a3.455,3.455,0,0,0,2.443-5.9A66.892,66.892,0,0,1,194.5,161.7V126.458a24.136,24.136,0,0,0-.124-43.7,86.384,86.384,0,0,0-172.519,0,24.136,24.136,0,0,0-.124,43.7V161.7a66.892,66.892,0,0,1-19.72,47.608Zm106.1-1.012A52.176,52.176,0,0,1,70,191.675a103.378,103.378,0,0,1-8.88-10.974l.048-.045-.28-.28a102.69,102.69,0,0,1-18.427-58.807V86.477l19.778-5.933A20.6,20.6,0,0,0,77.017,60.686a4.426,4.426,0,0,1,4.423-4.423h53.351a4.426,4.426,0,0,1,4.423,4.423,20.6,20.6,0,0,0,14.775,19.858l19.778,5.933v35.092a102.69,102.69,0,0,1-18.427,58.82l-.28.266.041.045a103.385,103.385,0,0,1-8.873,10.974A52.176,52.176,0,0,1,108.115,208.3Zm95.907,0H191.289a55.109,55.109,0,0,1-37.535-14.7,109.535,109.535,0,0,0,26.658-64.777h3.721a24.277,24.277,0,0,0,3.455-.276V161.7a73.675,73.675,0,0,0,16.434,46.6Zm-2.612-103.66a17.3,17.3,0,0,1-17.277,17.277h-3.455V87.361h3.455a17.3,17.3,0,0,1,17.277,17.277ZM108.115,7.888a79.566,79.566,0,0,1,79.172,72.79,24.388,24.388,0,0,0-3.155-.228h-6.4l-21.769-6.527a13.732,13.732,0,0,1-9.837-13.237,11.347,11.347,0,0,0-11.334-11.334H81.44A11.347,11.347,0,0,0,70.106,60.686a13.732,13.732,0,0,1-9.851,13.237L38.5,80.45H32.1a24.386,24.386,0,0,0-3.155.228,79.566,79.566,0,0,1,79.172-72.79Zm-93.294,96.75A17.3,17.3,0,0,1,32.1,87.361h3.455v34.553H32.1a17.3,17.3,0,0,1-17.277-17.277ZM32.1,128.825h3.721A109.534,109.534,0,0,0,62.477,193.6a55.109,55.109,0,0,1-37.535,14.7H12.209a73.675,73.675,0,0,0,16.434-46.6V128.549a24.274,24.274,0,0,0,3.455.276Z" transform="translate(0 0)"/>
    <path id="Tracciato_101" data-name="Tracciato 101" d="M25,75.781a11.244,11.244,0,0,0,11.23,11.23H59.553V80.1H36.23a4.319,4.319,0,0,1-3.6-6.71L44.668,61.863A3.455,3.455,0,0,0,45.7,59.748l3.455-31.1-6.869-.76L38.973,57.741,27.612,68.625a3.52,3.52,0,0,0-.37.415A11.278,11.278,0,0,0,25,75.781Z" transform="translate(58.928 66.002)"/>
    <path id="Tracciato_102" data-name="Tracciato 102" d="M20.556,51.4l6.458,2.457a30.442,30.442,0,0,0,1.828-7.692l-6.876-.691a23.5,23.5,0,0,1-1.41,5.926Z" transform="translate(48.016 109.186)"/>
    <path id="Tracciato_103" data-name="Tracciato 103" d="M22.64,47.469,28,43.108a30.442,30.442,0,0,0-5.739-5.435L18.2,43.26a23.7,23.7,0,0,1,4.44,4.209Z" transform="translate(42.232 90.022)"/>
    <path id="Tracciato_104" data-name="Tracciato 104" d="M14.931,42.923a23.12,23.12,0,0,1,5.933,1.417l2.477-6.451a30.342,30.342,0,0,0-7.7-1.842Z" transform="translate(34.205 86.03)"/>
    <path id="Tracciato_105" data-name="Tracciato 105" d="M22.153,49.878l6.824-1.085a30.162,30.162,0,0,0-2.26-7.6l-6.306,2.83A23.223,23.223,0,0,1,22.153,49.878Z" transform="translate(47.663 98.66)"/>
    <path id="Tracciato_106" data-name="Tracciato 106" d="M20.39,51.592l-1.935,1.935,4.886,4.886,1.932-1.932A30.211,30.211,0,0,0,28.413,52.8l-5.6-4.05a22.935,22.935,0,0,1-2.422,2.844Z" transform="translate(42.858 117.215)"/>
    <path id="Tracciato_107" data-name="Tracciato 107" d="M41.109,48.785l6.824,1.085a23.224,23.224,0,0,1,1.728-5.846l-6.306-2.83A30.161,30.161,0,0,0,41.109,48.785Z" transform="translate(98.481 98.668)"/>
    <path id="Tracciato_108" data-name="Tracciato 108" d="M42.963,43.108l5.363,4.361a23.7,23.7,0,0,1,4.44-4.209l-4.06-5.587a30.442,30.442,0,0,0-5.743,5.435Z" transform="translate(103.033 90.022)"/>
    <path id="Tracciato_109" data-name="Tracciato 109" d="M48.264,48.748l-5.6,4.05a30.2,30.2,0,0,0,3.137,3.68l1.935,1.935,4.886-4.886-1.938-1.938a22.922,22.922,0,0,1-2.419-2.84Z" transform="translate(102.297 117.215)"/>
    <path id="Tracciato_110" data-name="Tracciato 110" d="M47.922,45.473l-6.876.691a30.442,30.442,0,0,0,1.828,7.692L49.332,51.4a23.5,23.5,0,0,1-1.41-5.926Z" transform="translate(98.326 109.174)"/>
    <path id="Tracciato_111" data-name="Tracciato 111" d="M49.112,44.34a23.121,23.121,0,0,1,5.933-1.417l-.712-6.876a30.341,30.341,0,0,0-7.7,1.842Z" transform="translate(112.049 86.03)"/>
  </g>
</svg>
