<svg xmlns="http://www.w3.org/2000/svg" width="249.771" height="249.785" viewBox="0 0 249.771 249.785">
  <g id="dental" transform="translate(-0.013 0)">
    <g id="Raggruppa_24" data-name="Raggruppa 24" transform="translate(0.013 87.434)">
      <g id="Raggruppa_23" data-name="Raggruppa 23">
        <path id="Tracciato_49" data-name="Tracciato 49" d="M246.761,230.628l-40.38-11.535a26.523,26.523,0,0,0-17.879,1.186c1.415-4.542,2.71-9.158,3.726-13.912a4.162,4.162,0,0,0-4.055-5.037H173.941l-5.961-23.849a12.489,12.489,0,0,0-12.118-9.454H93.935a12.489,12.489,0,0,0-12.118,9.458L75.856,201.33H61.623a4.164,4.164,0,0,0-4.071,5.037c1.016,4.75,2.31,9.375,3.747,13.916a26.561,26.561,0,0,0-17.9-1.191L3.019,230.628a4.163,4.163,0,0,0-3.006,4v91.583a4.163,4.163,0,0,0,4.163,4.163H245.621a4.163,4.163,0,0,0,4.163-4.163V234.633A4.163,4.163,0,0,0,246.761,230.628ZM79.107,209.655a4.163,4.163,0,0,0,4.038-3.155l6.748-26.992a4.163,4.163,0,0,1,4.042-3.155h61.926A4.163,4.163,0,0,1,159.9,179.5l5.458,21.826H91.6v8.326H182.92a144.319,144.319,0,0,1-4.862,15.677l-2.943,7.834a4.221,4.221,0,0,0-.254,1.249L171.422,296.3a9.671,9.671,0,0,1-10.2,9.111,9.53,9.53,0,0,1-1.087-.123,10.115,10.115,0,0,1-8-8.667l-8.779-58.58a18.734,18.734,0,0,0-7.772-12.526,18.49,18.49,0,0,0-10.669-3.368,19.374,19.374,0,0,0-3.888.416A19.07,19.07,0,0,0,106.357,238.6l-8.788,58.571a9.654,9.654,0,0,1-10.624,8.172,10.174,10.174,0,0,1-8.613-9.77L74.944,234.4a4.221,4.221,0,0,0-.254-1.249l-2.943-7.83a144.649,144.649,0,0,1-4.871-15.665h12.23Zm162.351,112.4H8.339V237.771L45.7,227.1a18.241,18.241,0,0,1,20.981,8.784l3.33,60.153a18,18,0,0,0,35.792,2.373l8.788-58.592a10.719,10.719,0,0,1,8.113-9.121,10.353,10.353,0,0,1,12.3,7.941q.069.318.117.639l8.779,58.563a18.521,18.521,0,0,0,14.9,15.648,17.987,17.987,0,0,0,20.927-16.743l3.384-60.861A18.25,18.25,0,0,1,204.1,227.1l37.362,10.674Z" transform="translate(-0.013 -168.027)"/>
      </g>
    </g>
    <g id="Raggruppa_26" data-name="Raggruppa 26" transform="translate(54.13 0)">
      <g id="Raggruppa_25" data-name="Raggruppa 25">
        <path id="Tracciato_50" data-name="Tracciato 50" d="M210.3.02a35.241,35.241,0,0,0-13.869,2.846,55.145,55.145,0,0,1-43.269,0,35.247,35.247,0,0,0-49.147,32.4,154.468,154.468,0,0,0,3.439,32.229,4.163,4.163,0,0,0,4.055,3.293h126.55a4.163,4.163,0,0,0,4.071-3.293,154.459,154.459,0,0,0,3.422-32.229A35.246,35.246,0,0,0,210.3.02Zm24.338,62.437H114.928a145.686,145.686,0,0,1-2.589-27.2,26.934,26.934,0,0,1,37.532-24.748,63.476,63.476,0,0,0,49.821,0,26.934,26.934,0,0,1,37.532,24.748A145.6,145.6,0,0,1,234.635,62.457Z" transform="translate(-104.013 0)"/>
      </g>
    </g>
    <g id="Raggruppa_28" data-name="Raggruppa 28" transform="translate(70.781 17.215)">
      <g id="Raggruppa_27" data-name="Raggruppa 27">
        <path id="Tracciato_51" data-name="Tracciato 51" d="M150.583,33.083A27.408,27.408,0,0,0,136.013,56.7v4.975h8.326v-5a19.208,19.208,0,0,1,10.407-16.389Z" transform="translate(-136.013 -33.083)"/>
      </g>
    </g>
  </g>
</svg>
