<svg xmlns="http://www.w3.org/2000/svg" width="250.801" height="250.798" viewBox="0 0 250.801 250.798">
  <g id="Raggruppa_32" data-name="Raggruppa 32" transform="translate(-343.199 -389.076)">
    <g id="dental-care" transform="translate(343.199 389.074)">
      <g id="Raggruppa_16" data-name="Raggruppa 16" transform="translate(0 0.003)">
        <g id="Raggruppa_15" data-name="Raggruppa 15">
          <path id="Tracciato_45" data-name="Tracciato 45" d="M94.585,115.368l-13.029,5.217a8.673,8.673,0,0,1-10.977-11.9l2.872-5.743a8.36,8.36,0,0,0-1.568-9.652L51.891,73.292l5.4-5.4a4.18,4.18,0,0,0,0-5.911L43.531,48.213l1.225-1.225a4.18,4.18,0,0,0,.084-5.827L7.219,1.313A4.18,4.18,0,0,0,0,4.18V58.52a4.179,4.179,0,0,0,1.484,3.194l12.54,10.6a4.18,4.18,0,0,0,5.651-.238L20.9,70.838,34.665,84.6a4.18,4.18,0,0,0,5.911,0l5.4-5.4L65.973,99.192l-2.855,5.727a17.021,17.021,0,0,0,21.556,23.408l13.037-5.212ZM17.945,61.985l-1.463,1.463L8.36,56.58V14.7l27.613,29.26-1.308,1.308ZM37.62,75.737l-10.81-10.81,10.81-10.81L48.43,64.94Z" transform="translate(0 -0.003)"/>
        </g>
      </g>
      <g id="Raggruppa_18" data-name="Raggruppa 18" transform="translate(117.041 121.22)">
        <g id="Raggruppa_17" data-name="Raggruppa 17">
          <path id="Tracciato_46" data-name="Tracciato 46" d="M355.182,232.314a4.18,4.18,0,0,0-4.556.907l-58.52,58.52a4.18,4.18,0,0,0,0,5.911l3.315,3.315-16.4,16.4a40.378,40.378,0,0,0-21.577-5.952C239,311.417,224,322.665,224,336.5s15,25.08,33.44,25.08,33.44-11.248,33.44-25.08a20.755,20.755,0,0,0-5.467-13.7l15.918-15.918,3.315,3.315a4.18,4.18,0,0,0,5.911,0l45.98-45.98a4.18,4.18,0,0,0,1.225-2.955v-25.08A4.18,4.18,0,0,0,355.182,232.314Zm-97.741,120.9c-13.593,0-25.08-7.658-25.08-16.72s11.487-16.72,25.08-16.72,25.08,7.658,25.08,16.72S271.034,353.217,257.44,353.217Zm91.96-93.691-41.8,41.8-6.629-6.629,48.43-48.43Z" transform="translate(-224 -231.996)"/>
        </g>
      </g>
      <g id="Raggruppa_20" data-name="Raggruppa 20" transform="translate(36.487 95.2)">
        <g id="Raggruppa_19" data-name="Raggruppa 19">
          <path id="Tracciato_47" data-name="Tracciato 47" d="M177.467,228.257a18.981,18.981,0,0,0-37.445,0L127.4,304.024a10.4,10.4,0,0,1-20.57-.3L96.007,224.373a4.183,4.183,0,0,0-.6-1.672l-2.324-3.72A117.737,117.737,0,0,1,78,182.2l-8.164,1.822a126.129,126.129,0,0,0,16.181,39.413l1.848,2.959,10.7,78.459a18.76,18.76,0,0,0,37.093.552l12.628-75.767a10.614,10.614,0,0,1,20.942,0l8.389,50.332,8.243-1.379Z" transform="translate(-69.832 -182.197)"/>
        </g>
      </g>
      <g id="Raggruppa_22" data-name="Raggruppa 22" transform="translate(47.059 16.717)">
        <g id="Raggruppa_21" data-name="Raggruppa 21">
          <path id="Tracciato_48" data-name="Tracciato 48" d="M207.63,32a52.736,52.736,0,0,0-20.769,4.263,47.074,47.074,0,0,1-36.91,0,52.735,52.735,0,0,0-59.887,13.1l6.2,5.626a44.35,44.35,0,0,1,50.39-11.044,55.424,55.424,0,0,0,43.5,0A44.375,44.375,0,0,1,252.006,84.73a117.876,117.876,0,0,1-17.941,62.55L231.742,151a4.183,4.183,0,0,0-.6,1.672l-3.419,25.08,8.281,1.129,3.3-24.19,1.848-2.959a126.234,126.234,0,0,0,19.211-67A52.735,52.735,0,0,0,207.63,32Z" transform="translate(-90.064 -31.992)"/>
        </g>
      </g>
    </g>
  </g>
</svg>
