<svg xmlns="http://www.w3.org/2000/svg" width="231.413" height="231.707" viewBox="0 0 231.413 231.707">
  <g id="Raggruppa_34" data-name="Raggruppa 34" transform="translate(-1293.83 -683.295)">
    <g id="orthodontist" transform="translate(1293.8 684.875)">
      <path id="Tracciato_87" data-name="Tracciato 87" d="M32.983,36.506a11.506,11.506,0,0,0-23.013,0,3.835,3.835,0,0,0,7.671,0,3.835,3.835,0,0,1,7.671,0,3.835,3.835,0,0,0,7.671,0Z" transform="translate(28.184 70.886)"/>
      <path id="Tracciato_88" data-name="Tracciato 88" d="M35.476,25A11.506,11.506,0,0,0,23.97,36.506a3.835,3.835,0,0,0,7.671,0,3.835,3.835,0,0,1,7.671,0,3.835,3.835,0,0,0,7.671,0A11.506,11.506,0,0,0,35.476,25Z" transform="translate(67.881 70.886)"/>
      <path id="Tracciato_89" data-name="Tracciato 89" d="M14.023,32.317,25.53,28.482A3.841,3.841,0,0,0,23.1,21.194L11.6,25.03a3.841,3.841,0,0,0,2.428,7.287Z" transform="translate(25.343 59.534)"/>
      <path id="Tracciato_90" data-name="Tracciato 90" d="M42.53,25.034,31.023,21.2A3.841,3.841,0,0,0,28.6,28.486L40.1,32.321a3.841,3.841,0,1,0,2.428-7.287Z" transform="translate(73.546 59.546)"/>
      <path id="Tracciato_91" data-name="Tracciato 91" d="M21.805,38.671h7.671a3.835,3.835,0,1,0,0-7.671H21.805a3.835,3.835,0,1,0,0,7.671Z" transform="translate(50.868 87.899)"/>
      <path id="Tracciato_92" data-name="Tracciato 92" d="M51.252,34.476a3.858,3.858,0,0,0-5.159,1.611,13.017,13.017,0,0,1-11.936,5.6A13.041,13.041,0,0,1,22.222,36.1a3.835,3.835,0,1,0-6.839,3.471,20.389,20.389,0,0,0,18.775,9.792,20.378,20.378,0,0,0,18.771-9.792A3.809,3.809,0,0,0,51.252,34.476Z" transform="translate(42.351 96.389)"/>
      <path id="Tracciato_94" data-name="Tracciato 94" d="M142.931,30.3C124.153,3.935,85.2,0,63.66,0,31.987,0,.03,20.328.03,65.778a89.366,89.366,0,0,0,7.9,34.956l-.1.084a15.342,15.342,0,0,0,11.18,25.751h2.343a53.842,53.842,0,0,0,39.812,37.051V172.6a10.229,10.229,0,0,1-5.37,7.978c-14.057,4.741-37.637,16.308-40.391,41.039a7.694,7.694,0,0,0,7.64,8.515H129.971a7.7,7.7,0,0,0,7.636-8.526c-2.754-24.716-26.33-36.287-40.391-41.039a10.218,10.218,0,0,1-5.366-7.966v-8.914a53.85,53.85,0,0,0,40.042-37.112h2.186a15.472,15.472,0,0,0,10.854-4.472,15.1,15.1,0,0,0,1.657-19.726C156.647,72.107,155.439,47.867,142.931,30.3ZM19.012,118.9a7.525,7.525,0,0,1-5.37-2.24,7.671,7.671,0,0,1-2.221-5.431A7.56,7.56,0,0,1,13.492,106a7.376,7.376,0,0,1,5.519-2.443h.081v7.671a53.251,53.251,0,0,0,.614,7.671ZM97.577,195.14l8.342,14.605L93.4,218.088ZM84.813,222.457H68.186l-5.151-28.329a61.82,61.82,0,0,0,26.913,0Zm-25.2-4.365-12.519-8.346,8.346-14.605Zm-36.59,4.365c1.749-15.672,14.191-25.172,25.49-30.638l-9.857,17.214a3.835,3.835,0,0,0,1.2,5.093l12.473,8.331Zm106.952,0H100.684l12.469-8.315a3.835,3.835,0,0,0,1.2-5.093l-9.849-17.237C115.784,197.277,128.242,206.781,129.971,222.457ZM91.322,185.82a49.033,49.033,0,0,1-14.813,2.117A48.914,48.914,0,0,1,61.7,185.82,16.734,16.734,0,0,0,68.838,172.6v-7.87c1.308.1,2.616.2,3.951.2H80.46c1.254,0,2.485-.1,3.72-.188V172.6a16.734,16.734,0,0,0,7.142,13.225Zm35.163-74.592A46.075,46.075,0,0,1,80.46,157.254H72.789a46.075,46.075,0,0,1-46.026-46.025V80.545a3.8,3.8,0,0,1,3.452-3.835c13.478-1.151,45.477-6.137,64.9-27.32a71.443,71.443,0,0,0,29.257,25.356,3.835,3.835,0,0,1,2.1,3.406Zm1.3-43.341C106.107,57.148,99.422,41.316,99.365,41.174a3.835,3.835,0,0,0-6.632-.874C75.826,62.84,42.933,67.941,29.575,69.088A11.414,11.414,0,0,0,19.092,80.545V95.886h-.081a15.135,15.135,0,0,0-4.549.767A82.669,82.669,0,0,1,7.7,65.778C7.7,25.64,35.807,7.671,63.66,7.671c20.067,0,56.239,3.517,73.023,27.086,10.647,14.958,11.817,35.957,3.525,62.472a15.342,15.342,0,0,0-6.052-1.342V78.17A11.549,11.549,0,0,0,127.785,67.888Zm11.74,48.76a7.771,7.771,0,0,1-5.446,2.251h-.537a53.254,53.254,0,0,0,.614-7.671v-7.671a7.8,7.8,0,0,1,4.718,1.672,7.418,7.418,0,0,1,2.953,6,7.537,7.537,0,0,1-2.3,5.42Z" transform="translate(0)"/>
    </g>
    <g id="tooth_1_" data-name="tooth (1)" transform="translate(1447.121 684.875)">
      <g id="Raggruppa_9" data-name="Raggruppa 9" transform="translate(0 0)">
        <g id="Raggruppa_8" data-name="Raggruppa 8">
          <path id="Tracciato_34" data-name="Tracciato 34" d="M89.189,1.34A28.973,28.973,0,0,0,65.875,4.065,28.968,28.968,0,0,0,42.561,1.34C28.643,5.8,22.118,26.128,33.277,42.526c5.287,7.766,5.993,13.756,6.74,20.1.547,4.642,1.113,9.443,3.476,15.055,1.589,3.773,3.836,8.089,7.16,8.089h.091c2.673-.063,4.827-2.714,6.983-8.6a69.192,69.192,0,0,0,2.483-9.957c1.225-6.158,2.492-12.525,5.677-12.547H65.9c3.15,0,4.414,6.37,5.637,12.529a69.044,69.044,0,0,0,2.484,9.975c2.159,5.891,4.313,8.546,6.983,8.609H81.1c3.317,0,5.567-4.323,7.158-8.1,2.258-5.363,2.85-10.152,3.422-14.783.806-6.52,1.566-12.679,6.807-20.388C109.776,25.9,102.873,5.727,89.189,1.34Zm6.525,39.284c-5.7,8.379-6.542,15.233-7.361,21.861-.569,4.607-1.107,8.958-3.185,13.893-2.466,5.854-3.9,6.052-4.076,6.052h-.005c-.065,0-1.606-.11-3.916-6.412a66.744,66.744,0,0,1-2.343-9.474,54.834,54.834,0,0,0-2.579-9.953c-1.467-3.5-3.6-5.275-6.339-5.275h-.046c-2.751.019-4.891,1.808-6.361,5.316a54.77,54.77,0,0,0-2.578,9.929,66.907,66.907,0,0,1-2.343,9.458c-2.306,6.289-3.851,6.4-3.916,6.4-.15,0-1.6-.135-4.083-6.038C44.4,71.2,43.89,66.845,43.346,62.231c-.762-6.464-1.55-13.147-7.3-21.591-10.06-14.782-4-32.41,7.537-36.109a25.757,25.757,0,0,1,21.4,2.907,1.675,1.675,0,0,0,1.784,0,25.767,25.767,0,0,1,21.4-2.907C99.927,8.3,105.571,26.124,95.714,40.624Z" transform="translate(-27.617 0)" stroke="#000" stroke-width="3"/>
        </g>
      </g>
    </g>
  </g>
</svg>
