<svg xmlns="http://www.w3.org/2000/svg" width="272.452" height="217.814" viewBox="0 0 272.452 217.814">
  <g id="crown" transform="translate(0 -0.005)">
    <path id="Tracciato_40" data-name="Tracciato 40" d="M106.729,7.9a24.739,24.739,0,0,0-3.365,4.218,24.959,24.959,0,0,0-3.369-4.205A29.926,29.926,0,0,0,62.5,5.473,29.934,29.934,0,0,0,25,7.9c-7.6,7.6-9.886,20.283-6.092,33.956.453,1.584.94,3.118,1.476,4.54a60.216,60.216,0,0,0,4.644,9.258c.846,1.459,1.694,2.92,2.453,4.4.414.831.831,1.659,1.2,2.53a4.541,4.541,0,0,0,3.228,2.652,150.19,150.19,0,0,0,30.587,2.9,150.1,150.1,0,0,0,30.591-2.916,4.538,4.538,0,0,0,3.228-2.646c.378-.873.792-1.7,1.2-2.534.686-1.364,1.476-2.7,2.245-4l.326-.557c1.135-2,2.27-4.087,3.274-6.3,1.027,2.2,2.139,4.311,3.305,6.358l.26.453c.775,1.314,1.576,2.667,2.27,4.055.414.831.831,1.657,1.2,2.53a4.546,4.546,0,0,0,3.228,2.652,150.19,150.19,0,0,0,30.6,2.91,150.11,150.11,0,0,0,30.591-2.916,4.538,4.538,0,0,0,3.228-2.646c.376-.873.79-1.7,1.2-2.534.686-1.364,1.476-2.7,2.243-4l.326-.557c1.137-2,2.272-4.087,3.274-6.3,1.027,2.2,2.139,4.311,3.307,6.358l.258.453c.777,1.314,1.576,2.667,2.272,4.055.412.831.829,1.657,1.2,2.53a4.538,4.538,0,0,0,3.228,2.652,150.171,150.171,0,0,0,30.6,2.91,150.082,150.082,0,0,0,30.591-2.916,4.545,4.545,0,0,0,3.23-2.646c.376-.873.79-1.7,1.189-2.5.771-1.515,1.621-2.979,2.465-4.436a59.622,59.622,0,0,0,4.637-9.231c.545-1.436,1.039-2.97,1.488-4.542V41.84c3.764-13.65,1.48-26.336-6.111-33.925a29.925,29.925,0,0,0-37.49-2.442,29.934,29.934,0,0,0-37.5,2.426,24.782,24.782,0,0,0-3.369,4.218,24.948,24.948,0,0,0-3.367-4.205,29.926,29.926,0,0,0-37.5-2.438,29.934,29.934,0,0,0-37.5,2.426ZM97.319,39.51c-.1.391-.231.786-.362,1.145a3.814,3.814,0,0,0-.141.453,16.6,16.6,0,0,1-.7,2.077,55.862,55.862,0,0,1-3.891,7.755l-.287.491c-.867,1.476-1.761,2.991-2.538,4.54l-.4.8a158.368,158.368,0,0,1-53.013,0l-.418-.836c-.85-1.663-1.771-3.259-2.7-4.858a53.037,53.037,0,0,1-4.005-7.9c-.453-1.2-.863-2.48-1.231-3.779-1.081-3.918-4.005-17.309,3.791-25.1a20.861,20.861,0,0,1,27.93.3c.042.042.1.05.141.091a1.685,1.685,0,0,0,.137.164A37.661,37.661,0,0,1,70.983,30.211a4.541,4.541,0,1,0,8.745-2.451A40.592,40.592,0,0,0,69.616,11.794a20.684,20.684,0,0,1,23.962,2.515A20.685,20.685,0,0,1,98.822,29.09a38.592,38.592,0,0,1-1.5,10.42Zm97.574-25.2a20.861,20.861,0,0,1,27.93.306c.04.039.1.05.139.089a1.686,1.686,0,0,0,.137.164,37.617,37.617,0,0,1,11.351,15.349,4.542,4.542,0,0,0,8.747-2.453A40.615,40.615,0,0,0,233.086,11.8a20.681,20.681,0,0,1,23.96,2.517c7.784,7.782,4.872,21.154,3.787,25.083-.372,1.322-.779,2.6-1.243,3.818a52.118,52.118,0,0,1-4,7.87c-.908,1.6-1.848,3.178-2.723,4.891l-.4.8a158.368,158.368,0,0,1-53.013,0c-.137-.268-.268-.534-.4-.8-.79-1.576-1.69-3.116-2.575-4.615l-.231-.395a56.263,56.263,0,0,1-3.924-7.814,17.1,17.1,0,0,1-.694-2.058c-.035-.15-.085-.3-.137-.453-.131-.36-.262-.755-.4-1.272a38.372,38.372,0,0,1-1.457-10.289,20.693,20.693,0,0,1,5.255-14.777Zm-53.8.306c.042.039.1.05.141.089a1.64,1.64,0,0,0,.135.164,37.64,37.64,0,0,1,11.353,15.349,4.541,4.541,0,1,0,8.745-2.453A40.615,40.615,0,0,0,151.351,11.8a20.685,20.685,0,0,1,23.962,2.517,20.7,20.7,0,0,1,5.244,14.771,38.59,38.59,0,0,1-1.5,10.443,11.71,11.71,0,0,1-.364,1.145,4.228,4.228,0,0,0-.139.453,16.6,16.6,0,0,1-.7,2.077,56.327,56.327,0,0,1-3.891,7.755l-.287.491c-.867,1.476-1.761,2.991-2.538,4.54l-.4.8a158.38,158.38,0,0,1-53.015,0c-.135-.268-.268-.536-.4-.8-.79-1.576-1.69-3.114-2.573-4.612l-.233-.395a56.62,56.62,0,0,1-3.922-7.816,17.082,17.082,0,0,1-.7-2.056c-.035-.15-.085-.3-.135-.455-.131-.358-.264-.752-.4-1.27a38.4,38.4,0,0,1-1.459-10.3,20.7,20.7,0,0,1,5.259-14.777,20.86,20.86,0,0,1,27.926.306Zm0,0" transform="translate(-8.003 0)"/>
    <path id="Tracciato_41" data-name="Tracciato 41" d="M239.988,145.117a4.541,4.541,0,0,0-4.542,4.54V184.1l-5.87-5.87a4.541,4.541,0,1,0-6.421,6.421l13.621,13.621a4.539,4.539,0,0,0,3.211,1.33,4.186,4.186,0,0,0,3.056-1.247c.042-.042.1-.056.141-.1l13.621-13.623a4.541,4.541,0,1,0-6.421-6.421l-5.858,5.885V149.657a4.54,4.54,0,0,0-4.54-4.54Zm0,0" transform="translate(-103.76 -67.894)"/>
    <path id="Tracciato_42" data-name="Tracciato 42" d="M86.386,145.117a4.54,4.54,0,0,0-4.54,4.54V184.1l-5.872-5.87a4.541,4.541,0,1,0-6.421,6.421l13.623,13.621a4.534,4.534,0,0,0,3.209,1.33,4.186,4.186,0,0,0,3.056-1.247c.042-.042.1-.056.141-.1l13.623-13.623a4.541,4.541,0,1,0-6.421-6.421L90.928,184.1V149.657a4.541,4.541,0,0,0-4.542-4.54Zm0,0" transform="translate(-31.893 -67.894)"/>
    <path id="Tracciato_43" data-name="Tracciato 43" d="M393.586,145.117a4.54,4.54,0,0,0-4.54,4.54V184.1l-5.872-5.87a4.541,4.541,0,1,0-6.421,6.421l13.623,13.621a4.534,4.534,0,0,0,3.209,1.33,4.186,4.186,0,0,0,3.056-1.247c.042-.042.1-.056.141-.1l13.623-13.623a4.541,4.541,0,1,0-6.421-6.421l-5.858,5.885V149.657a4.541,4.541,0,0,0-4.542-4.54Zm0,0" transform="translate(-175.625 -67.894)"/>
    <path id="Tracciato_44" data-name="Tracciato 44" d="M.1,306.348a4.538,4.538,0,0,0,5.384,3.5l17.637-3.714c.073.6.146,1.2.237,1.752.663,4,1.158,8.042,1.653,12.089.281,2.27.563,4.567.877,6.878,1.779,12.561,8.373,14.6,12.145,14.7h.36c10.2,0,11.516-10.9,12.152-16.159.1-.831.193-1.625.339-2.571l.069-.484c.694-3.426,1.135-6.849,1.563-10.154l.212-1.644c.428-3.178,1.2-4.155,1.767-4.463.563.308,1.341,1.27,1.763,4.463l.218,1.644c.426,3.3.867,6.728,1.534,10.017l.127.848c.114.719.21,1.513.31,2.345.644,5.33,1.948,16.51,12.509,16.155,3.773-.1,10.366-2.133,12.152-14.735.308-2.27.59-4.567.871-6.851.495-4.045.989-8.088,1.648-12.075.1-.59.177-1.224.256-1.871l21.158,3.875a185.019,185.019,0,0,0,58.478-.019l21.061-3.856c.073.64.15,1.272.249,1.858.663,4,1.158,8.042,1.652,12.087.283,2.27.563,4.569.877,6.88,1.779,12.574,8.373,14.611,12.145,14.706h.36c10.2,0,11.516-10.9,12.152-16.159.1-.831.2-1.628.341-2.571l.067-.486c.7-3.423,1.135-6.847,1.563-10.152l.212-1.644c.428-3.178,1.2-4.155,1.767-4.463.563.308,1.364,1.27,1.763,4.463l.218,1.644c.426,3.3.867,6.728,1.534,10.017l.127.848c.114.717.21,1.513.31,2.345.644,5.33,2.093,16.508,12.509,16.155,3.775-.1,10.368-2.135,12.152-14.735.31-2.27.59-4.567.871-6.851.5-4.047.992-8.088,1.648-12.075.1-.553.168-1.162.241-1.767l17.637,3.729a4.541,4.541,0,0,0,1.879-8.886l-19.134-4.047c0-.212.031-.453.031-.59a7.829,7.829,0,0,0-.046-1.021c0-.567-.04-1.158-.085-1.817v-.436a31.787,31.787,0,0,0-63.273.26c-.044.653-.085,1.312-.1,2-.031.345-.044.7-.044,1.023a3.935,3.935,0,0,0,.027.526l-22.222,4.087a175.748,175.748,0,0,1-55.4,0l-22.322-4.087c0-.185.027-.414.027-.526a7.858,7.858,0,0,0-.046-1.023c0-.567-.039-1.158-.085-1.817v-.434a31.785,31.785,0,0,0-63.271.258c-.046.655-.087,1.312-.1,2a3.189,3.189,0,0,0-.11,1.008,4.031,4.031,0,0,0,.033.588L3.6,300.963a4.541,4.541,0,0,0-3.5,5.386Zm217.862-32.726a22.611,22.611,0,0,1,22.586,20.252c.031.553.073,1.112.073,1.7v1.361a51.574,51.574,0,0,1-.491,9.406c-.682,4.132-1.193,8.3-1.7,12.463-.276,2.27-.555,4.5-.854,6.712-.227,1.607-1.143,6.847-3.378,6.907-1.617.044-2.426-1.131-3.274-8.175-.108-.944-.222-1.848-.368-2.787l-.154-.985c-.628-3.105-1.05-6.356-1.459-9.535l-.216-1.663c-1.249-9.468-6.263-12-10.25-12.455a4.312,4.312,0,0,0-1.035,0c-3.987.453-9,2.987-10.254,12.455l-.212,1.663c-.409,3.151-.831,6.41-1.486,9.653l-.145.967c-.127.823-.239,1.725-.349,2.671-.848,7.032-1.756,8.1-3.27,8.173-2.239-.06-3.178-5.3-3.378-6.88-.3-2.243-.582-4.49-.858-6.739-.507-4.168-1.021-8.331-1.707-12.478a52.275,52.275,0,0,1-.482-9.5v-1.276c0-.553.037-1.085.077-1.675a22.628,22.628,0,0,1,22.586-20.233Zm-163.469,0a22.613,22.613,0,0,1,22.586,20.252c.031.553.073,1.112.073,1.7v1.361a51.76,51.76,0,0,1-.491,9.406c-.682,4.132-1.2,8.3-1.7,12.463-.276,2.27-.555,4.5-.854,6.712-.227,1.607-1.143,6.847-3.378,6.907-1.536.044-2.426-1.131-3.274-8.175-.11-.944-.222-1.848-.368-2.787l-.154-.985c-.628-3.105-1.05-6.356-1.459-9.535l-.218-1.663c-1.247-9.468-6.261-12-10.248-12.455a4.312,4.312,0,0,0-1.035,0c-3.987.453-9,2.987-10.254,12.455l-.212,1.663c-.409,3.151-.831,6.41-1.486,9.653l-.146.967c-.127.823-.241,1.725-.349,2.671-.854,7.032-1.771,8.1-3.27,8.173-2.239-.06-3.178-5.3-3.378-6.88-.3-2.243-.582-4.49-.858-6.739-.509-4.168-1.023-8.331-1.707-12.478a52.137,52.137,0,0,1-.478-9.439V295.6c0-.555.037-1.085.077-1.675a22.627,22.627,0,0,1,22.582-20.3Zm0,0" transform="translate(0 -123.738)"/>
  </g>
</svg>
